<svg t="1736238825368" class="icon" viewBox="0 0 1024 1024" version="1.1" xmlns="http://www.w3.org/2000/svg" p-id="4981" width="200" height="200"><path d="M838.4 171.2H254.4c-17.6 0-43.2-4.8-43.2-38.4 0-25.6 20.8-46.4 46.4-46.4h593.6c25.6 0 43.2-17.6 43.2-43.2S876.8 0 851.2 0H257.6c-68.8 0-128 56-132.8 123.2V916.8C124.8 976 176 1024 240 1024h601.6c30.4 0 56-25.6 56-56V225.6c-3.2-28.8-28.8-54.4-59.2-54.4z m-30.4 768H241.6c-17.6 0-30.4-8-30.4-20.8V248c12.8 4.8 25.6 8 43.2 8h555.2v683.2z" p-id="4982"></path><path d="M382.4 896h256c25.6 0 43.2-17.6 43.2-43.2s-17.6-43.2-43.2-43.2h-256c-25.6 0-43.2 17.6-43.2 43.2s17.6 43.2 43.2 43.2zM382.4 512h256c25.6 0 43.2-17.6 43.2-43.2v-128c0-25.6-17.6-43.2-43.2-43.2h-256c-25.6 0-43.2 17.6-43.2 43.2v128c0 25.6 17.6 43.2 43.2 43.2z m41.6-128h171.2v43.2H424V384z" p-id="4983"></path></svg>