<svg t="1736243084910" class="icon" viewBox="0 0 1024 1024" version="1.1" xmlns="http://www.w3.org/2000/svg" p-id="14038" width="200" height="200"><path d="M912.17361 235.278561H821.646827V112.460328c0-18.501376-14.71719-33.19196-33.716915-33.19196H232.956168c-18.511609 0-33.498952 14.690584-33.498952 33.19196v122.818233h-90.741677c-18.292622 0-33.255405 14.929014-33.255405 33.19196v184.486758a193.541995 193.541995 0 0 0 56.293097 136.586818h0.245594c30.650067 30.594809 71.495334 51.450812 117.108184 56.42715 50.381457 77.772294 134.704958 131.361817 228.069369 141.339053v83.700307H331.55479c-18.290575 0-33.498952 14.929014-33.498952 33.437553 0 18.013259 15.208377 33.431414 33.498952 33.431414h358.022093c18.296715 0 33.717939-15.418154 33.717939-33.431414 0-18.509563-15.423271-33.437553-33.717939-33.437553H544.172235v-83.700307c93.127004-9.977235 177.707354-63.565734 228.070392-141.339053 44.419675-4.975315 84.582397-25.134447 114.991988-54.77758l1.896186-1.648547c34.913161-35.091216 56.543807-83.700307 56.543808-136.586818V268.470521c0-18.260899-14.966876-33.19196-33.500999-33.19196z m-732.421178 307.299875c-23.278169-23.692608-37.295418-54.750975-37.295418-89.621157v-151.050228h57.000202v181.88756c0.731664 28.218692 4.988618 55.703673 12.845563 82.971713-12.358469-6.144954-23.283286-14.449084-32.550347-24.187888z m574.923098-60.918441v2.354627c-0.728594 37.223786-10.461259 74.226538-27.561729 106.959034l-0.485047 1.412162c-42.283012 78.495772-125.922944 129.703037-216.193901 129.703038-90.255607 0-173.895539-51.207265-215.71397-129.703038l-0.947581-1.412162c-17.563004-33.920554-26.615171-70.681806-27.076682-109.313661V146.137335h487.976863v335.52266h0.002047z m123.996059-28.702716c0 34.870182-14.256702 65.928548-37.045731 89.621157l-1.438769 1.430582c-9.486048 9.011234-19.943215 17.072841-31.357172 22.756283 8.076956-27.26804 12.114922-54.753021 12.82305-82.971713V301.907051h57.018622v151.050228z" p-id="14039"></path><path d="M372.727515 399.110907l73.63609 53.128011-28.216645 85.974094c-1.418302 3.715625-0.707105 7.881504 1.691526 11.334139 4.079922 5.40408 11.971659 6.727215 17.477046 2.566452l73.274864-53.216016 72.738651 52.953026c3.197832 2.567475 7.632841 3.361561 11.711739 2.120291 6.570649-2.12029 10.293437-9.205663 7.988952-15.757892l-28.207436-85.972047 73.089646-52.778041c3.382027-2.303462 5.598508-6.111185 5.598508-10.444886 0-6.909363-5.598508-12.395308-12.508895-12.395308l-90.671069 0.090051-27.847232-86.073355c-1.246387-3.625574-4.079922-6.729262-7.989974-8.051373-6.564509-2.128477-13.661138 1.678222-15.875573 8.051373l-27.864628 86.073355-90.565668-0.092098c-3.906983 0-7.812943 1.769296-10.112312 5.223978-4.166903 5.40408-2.839675 13.19451 2.65241 17.266246z m138.946562-60.850903l-1.454118-2.203179 0.37146-1.144056 1.082658 3.347235z" p-id="14040"></path></svg>