<svg t="1735633092869" class="icon" viewBox="0 0 1024 1024" version="1.1" xmlns="http://www.w3.org/2000/svg" p-id="1167" width="16" height="16"><path d="M984.576 819.143111H39.310222c-21.731556 0-39.367111-18.375111-39.367111-40.96 0-22.641778 17.635556-40.96 39.367111-40.96h98.474667v-348.16c0-217.372444 164.693333-389.12 374.158222-389.12s374.158222 171.747556 374.158222 389.12v348.16h98.474667c21.731556 0 39.367111 18.318222 39.367111 40.96 0 22.584889-17.635556 40.96-39.367111 40.96z m-168.618667-429.738667c0-178.232889-132.266667-316.074667-304.014222-316.074666S207.985778 211.171556 207.985778 389.404444v347.704889h607.971555V389.404444zM511.943111 960.284444c40.903111 0 75.605333-30.776889 88.917333-62.350222 29.639111-2.616889 57.002667-1.991111 81.464889-7.054222-3.072 73.898667-78.051556 133.063111-170.382222 133.063111-94.094222 0-170.439111-61.496889-170.609778-137.386667 23.722667 5.859556 51.029333 6.030222 80.839111 9.329778 12.629333 32.312889 48.014222 64.398222 89.770667 64.398222z" p-id="1168"></path></svg>